<svg xmlns="http://www.w3.org/2000/svg" xmlns:xlink="http://www.w3.org/1999/xlink" width="1920" height="1080" viewBox="0 0 1920 1080"><defs><style>.a{clip-path:url(#b);}.b,.d,.f,.g,.i,.j,.k,.m,.n,.o{fill:#002feb;}.b{opacity:0.958;}.c{fill:#a225df;opacity:0.867;}.d{opacity:0.833;}.e{fill:#00ff97;opacity:0.943;}.f{opacity:0.962;}.g{opacity:0.891;}.h{fill:#ff002b;opacity:0.805;}.i{opacity:0.82;}.j{opacity:0.862;}.k{opacity:0.927;}.l{fill:#eb8d00;opacity:0.815;}.m{opacity:0.818;}.n{opacity:0.854;}.o{opacity:0.816;}.p{fill:#a5ff57;}.q{fill:#fff;}</style><clipPath id="b"><rect width="1920" height="1080"/></clipPath></defs><g id="a" class="a"><rect class="q" width="1920" height="1080"/><rect class="b" width="8.852" height="4.086" transform="translate(1805.444 285.411) rotate(-129)"/><rect class="b" width="8.852" height="4.086" transform="translate(1092.265 419.411) rotate(-129)"/><rect class="b" width="8.852" height="4.086" transform="translate(1324.265 345.931) rotate(-129)"/><rect class="c" width="9.563" height="6.621" transform="translate(1459.358 640.334) rotate(50)"/><rect class="c" width="9.563" height="6.621" transform="translate(570.497 925.334) rotate(50)"/><rect class="c" width="9.563" height="6.621" transform="translate(746.18 774.334) rotate(50)"/><rect class="d" width="9.696" height="6.713" transform="translate(1554.317 284.766) rotate(41)"/><rect class="d" width="9.696" height="6.713" transform="translate(841.138 418.766) rotate(41)"/><rect class="e" width="10.585" height="7.328" transform="translate(1109.54 981.297) rotate(-106)"/><rect class="f" width="9.235" height="6.394" transform="translate(1184.312 90.235) rotate(-163)"/><rect class="f" width="9.235" height="6.394" transform="translate(388.133 142.235) rotate(-163)"/><rect class="g" width="7.682" height="5.318" transform="translate(606.003 393.408) rotate(115)"/><rect class="h" width="6.732" height="4.66" transform="translate(361.256 373.413) rotate(49)"/><rect class="i" width="5.27" height="4.743" transform="matrix(0.407, 0.914, -0.914, 0.407, 1593.995, 1029.054)"/><rect class="j" width="5.917" height="5.325" transform="matrix(-0.996, 0.087, -0.087, -0.996, 1713.272, 687.191)"/><rect class="j" width="5.917" height="5.325" transform="matrix(-0.996, 0.087, -0.087, -0.996, 1000.094, 821.191)"/><rect class="j" width="5.917" height="5.325" transform="matrix(-0.996, 0.087, -0.087, -0.996, 152.094, 445.748)"/><rect class="j" width="5.917" height="5.325" transform="matrix(-0.996, 0.087, -0.087, -0.996, 1229.094, 693.011)"/><rect class="k" width="9.264" height="8.338" transform="matrix(0.588, 0.809, -0.809, 0.588, 1507.216, 42.202)"/><rect class="k" width="9.264" height="8.338" transform="matrix(0.588, 0.809, -0.809, 0.588, 746.882, 220.202)"/><rect class="l" width="9.296" height="8.366" transform="translate(895.742 639.467)"/><rect class="l" width="9.296" height="8.366" transform="translate(182.563 773.467)"/><rect class="m" width="5.978" height="5.38" transform="translate(767.774 71.385) rotate(173)"/><rect class="n" width="6.874" height="6.186" transform="matrix(-0.174, -0.985, 0.985, -0.174, 228.575, 1002.154)"/><rect class="o" width="6.969" height="6.272" transform="matrix(-0.883, -0.469, 0.469, -0.883, 333.37, 653.091)"/><circle class="p" cx="8" cy="8" r="8" transform="translate(1562.48 446.263)"/><rect class="m" width="5.978" height="5.38" transform="translate(54.595 205.385) rotate(173)"/><rect class="e" width="10.585" height="7.328" transform="translate(563.362 631.297) rotate(-106)"/><rect class="e" width="10.585" height="7.328" transform="translate(1673.362 860.297) rotate(-106)"/></g></svg>