<svg xmlns="http://www.w3.org/2000/svg" xmlns:xlink="http://www.w3.org/1999/xlink" width="222.343" height="252.641" viewBox="0 0 222.343 252.641">
  <defs>
    <style>
      .cls-1 {
        fill: #fff;
      }

      .cls-2 {
        isolation: isolate;
        clip-path: url(#clip-path);
      }

      .cls-3 {
        fill: #f2f2f2;
      }

      .cls-4 {
        fill: #2f2e41;
      }

      .cls-5 {
        fill: #6c63ff;
      }

      .cls-6 {
        opacity: 0.3;
      }

      .cls-7 {
        opacity: 0.1;
      }

      .cls-8 {
        fill: #3f3d56;
      }

      .cls-9 {
        fill: #ffb9b9;
      }

      .cls-10 {
        fill: #d0cde1;
      }
    </style>
    <clipPath id="clip-path">
      <path id="Path_32" data-name="Path 32" class="cls-1" d="M726.763,424.073l105.005,72.336L837.1,614.992,726.763,676.714l-112-59.291,7.115-121.014Z" transform="translate(0)"/>
    </clipPath>
  </defs>
  <g id="Mask_Group_1" data-name="Mask Group 1" class="cls-2" transform="translate(-614.762 -424.073)">
    <g id="Group_2" data-name="Group 2" transform="translate(529.515 367.371)">
      <circle id="Ellipse_1" data-name="Ellipse 1" class="cls-3" cx="88.164" cy="88.164" r="88.164" transform="translate(0 245.314)"/>
      <path id="Path_7" data-name="Path 7" class="cls-4" d="M301.715,485.55a186.282,186.282,0,1,1,131.721-54.561A186.282,186.282,0,0,1,301.715,485.55Zm0-371.141c-101.932,0-184.86,82.927-184.86,184.86s82.928,184.86,184.86,184.86S486.574,401.2,486.574,299.268s-82.928-184.86-184.859-184.86Z" transform="translate(-106.901 -112.967)"/>
      <path id="Path_8" data-name="Path 8" class="cls-5" d="M348.152,289.107l-.021.011-91.812,51.124L155.782,289.973l-1.733-.866,5.218-104.356,90.79-64.7,1,.626,93.962,58.857Z" transform="translate(-56.287 -43.845)"/>
      <path id="Path_9" data-name="Path 9" class="cls-6" d="M349.128,351l-91.812,51.124L156.779,351.86l89.057-62.436Z" transform="translate(-57.285 -105.732)"/>
      <path id="Path_10" data-name="Path 10" class="cls-7" d="M400.425,289.468,297.112,227.9l6.22-106.861,93.962,58.857Z" transform="translate(-108.56 -44.205)"/>
      <path id="Path_11" data-name="Path 11" class="cls-3" d="M159.871,235.021l-.51-.722,91.8-64.8,96.978,60.8-.47.749-96.479-60.49Z" transform="translate(-58.228 -61.913)"/>
      <path id="Path_12" data-name="Path 12" class="cls-3" d="M157.075,292.486l-.5-.731,91.338-62.011.239.136,99.051,56.138-.437.769-98.812-56Z" transform="translate(-57.212 -83.925)"/>
      <path id="Path_13" data-name="Path 13" class="cls-3" d="M212.008,319.733l-.466-.751,92.053-57.04V152.594h.884V262.435Z" transform="translate(-77.294 -55.736)"/>
      <path id="Path_14" data-name="Path 14" class="cls-3" d="M268.939,349.593l-.47-.749,88.636-55.594V184.879h.884v108.86Z" transform="translate(-98.094 -67.532)"/>
      <path id="Path_15" data-name="Path 15" class="cls-3" d="M348.26,321.091,245.176,263.816l.015-.275,5.427-107.26.883.045L246.087,263.31l102.6,57.008Z" transform="translate(-89.584 -57.083)"/>
      <path id="Path_16" data-name="Path 16" class="cls-3" d="M297.822,351.752,195.9,298.339l.016-.284,6.009-107.313.883.05L196.81,297.82l101.422,53.149Z" transform="translate(-71.577 -69.675)"/>
      <circle id="Ellipse_2" data-name="Ellipse 2" class="cls-8" cx="35.55" cy="35.55" r="35.55" transform="translate(273.734 4.997)"/>
      <rect id="Rectangle_30" data-name="Rectangle 30" class="cls-4" width="611.458" height="1.422" transform="translate(20.619 420.219)"/>
      <path id="Path_17" data-name="Path 17" class="cls-9" d="M986.137,472.185l8.126,22.258s-8.479,25.438,0,26.144,9.537-24.378,9.537-24.378l-4.593-26.851Z" transform="translate(-425.05 -243.187)"/>
      <path id="Path_18" data-name="Path 18" class="cls-10" d="M988.193,359.128l6.006,6.006v28.618s3.533,5.3,2.827,6.713-1.413,1.413-.707,2.473,1.413,1.767.707,2.473a2.65,2.65,0,0,0,0,3.18c.707.707,2.12,1.766,1.06,2.826s-2.473.353-1.06,4.24,3.886,4.946,3.18,6.359-.707,4.946-.707,4.946l-15.192,2.12-3.18-39.923Z" transform="translate(-423.219 -202.91)"/>
      <path id="Path_19" data-name="Path 19" class="cls-8" d="M899.018,352.464l-17.665.706.707,7.419,15.546-2.827Z" transform="translate(-322.033 -128.765)"/>
      <path id="Path_20" data-name="Path 20" class="cls-9" d="M831.42,187.953l-2.12,21.2,21.552,3.179,1.59-12.189,1.59-12.189Z" transform="translate(-303.014 -68.656)"/>
      <path id="Path_21" data-name="Path 21" class="cls-7" d="M831.42,187.953l-2.12,21.2,21.552,3.179,1.59-12.189,1.59-12.189Z" transform="translate(-303.014 -68.656)"/>
      <path id="Path_22" data-name="Path 22" class="cls-9" d="M860.875,459.894l12.012,25.791s2.12,12.012,5.3,12.366,6.359-12.366,6.359-12.366l-4.239-6.713-4.946-19.078Z" transform="translate(-379.281 -239.729)"/>
      <path id="Path_23" data-name="Path 23" class="cls-4" d="M889.946,491.553,880.053,507.1s-9.539,148.033-8.125,146.973,6.006-1.413,7.773-4.24,12.719,0,12.719,0l6.359-6.713v-5.3c0-1.06,12.719-81.966,12.719-81.966v20.492s-3.886,75.253,2.473,74.547,19.432-4.946,19.432-4.946,18.725-140.614,13.072-145.914-8.126-17.312-8.126-17.312Z" transform="translate(-383.268 -248.069)"/>
      <circle id="Ellipse_3" data-name="Ellipse 3" class="cls-9" cx="16.959" cy="16.959" r="16.959" transform="translate(523.284 92.27)"/>
      <path id="Path_24" data-name="Path 24" class="cls-10" d="M878.223,338.829l-2.473-1.413s-10.952,7.419-14.485,24.025-6.006,20.845-6.006,20.845-3.533.707-1.06,3.18,2.473,2.12.353,3.533-3.533-1.413-2.12,1.413,3.18,2.12,1.767,3.886-3.886,1.767-2.473,3.18-1.413,4.593.353,6.006,2.473,1.766,2.473,4.24a12.511,12.511,0,0,0,.707,4.24H873.63s-3.533-6.713-2.473-8.126,1.413-2.826.707-3.533-2.826.707-.707-1.06,2.826-.707,2.12-2.826-2.12-1.06-.707-2.12,2.473-.707,1.767-1.767-2.12-1.06-.707-1.767,2.473,0,2.12-1.766-.707-1.06,0-1.767,8.126-24.731,8.126-25.438S878.223,338.829,878.223,338.829Z" transform="translate(-375.784 -194.977)"/>
      <path id="Path_25" data-name="Path 25" class="cls-8" d="M773.34,339.659l-22.259,1.413,5.653,5.3,15.546.353Z" transform="translate(-274.434 -124.087)"/>
      <path id="Path_26" data-name="Path 26" class="cls-8" d="M895.531,494.411l-4.593,8.479s13.779,1.767,18.725,3.533,17.665,4.24,17.665,4.24l3.18-12.366Z" transform="translate(-390.266 -252.341)"/>
      <path id="Path_27" data-name="Path 27" class="cls-8" d="M859.641,386.113l3.886,11.659,15.546-3.18-1.767-10.952Z" transform="translate(-314.1 -140.157)"/>
      <path id="Path_28" data-name="Path 28" class="cls-10" d="M941.76,315.781s-1.06-.707-3.533.707-10.6,2.12-14.485-2.12-6.713-7.773-7.772-7.066-1.767,8.833-1.767,8.833l-3.533,2.826-20.845,7.419,1.767,47.7,3.18,10.952s-2.473,8.479.707,13.425-1.767,6.713-1.767,6.713-1.06,1.413-.353,4.946-.707,16.605-.707,16.605,30.031,13.425,61.475,1.767l-3.533-13.426-1.766-30.031s1.766-4.946,1.413-7.066,10.6-31.8,10.6-31.8-1.766-14.839-10.952-18.018-10.6-6.359-10.6-6.359S943.527,317.194,941.76,315.781Z" transform="translate(-389.859 -183.941)"/>
      <path id="Path_29" data-name="Path 29" class="cls-4" d="M925.67,273.933a7.776,7.776,0,0,1-1.084-5.486,16.63,16.63,0,0,0,.474-4.944,48.933,48.933,0,0,1,2.845-7.18c1.422-2.574.745-3.658,5.215-4.47s2.642-6.638,14.427-.339a3.456,3.456,0,0,0,3.59,1.355c2.438-.474,3.319,2.912,3.319,2.912s1.626-.948,2.235.406,4.956-.813,4.956,8.331S956.7,281.83,956.7,281.83s.363-15.381-7.7-16.939-16.73-6.1-18.83-.271a44.406,44.406,0,0,1-4.5,9.313Z" transform="translate(-402.504 -162.532)"/>
      <ellipse id="Ellipse_4" data-name="Ellipse 4" class="cls-9" cx="1.59" cy="2.12" rx="1.59" ry="2.12" transform="translate(552.784 110.818)"/>
      <path id="Path_30" data-name="Path 30" class="cls-4" d="M952.66,737.951l2.485,7.454s0,7.454,2.485,11.181,4.969,11.8-4.969,12.423-14.287-3.106-14.287-3.106,1.864-4.969,0-6.833,0-5.59,0-5.59l1.864-14.908Z" transform="translate(-407.295 -341.326)"/>
      <path id="Path_31" data-name="Path 31" class="cls-4" d="M880.952,737.951l-2.485,7.454s0,7.454-2.485,11.181-4.969,11.8,4.969,12.424S895.24,765.9,895.24,765.9s-1.864-4.969,0-6.833,0-5.591,0-5.591l-1.864-14.908Z" transform="translate(-383.99 -341.326)"/>
    </g>
  </g>
</svg>
