<svg id="Capa_1" enable-background="new 0 0 512 512" height="512" viewBox="0 0 512 512" width="512" xmlns="http://www.w3.org/2000/svg"><path d="m419.694 121.892c-2.757-14.714-9.814-28.329-20.541-39.303-13.159-13.462-30.28-21.334-48.617-22.451-17.219-36.388-53.917-60.138-94.536-60.138s-77.318 23.75-94.536 60.138c-34.831 2.12-62.953 28.633-69.159 61.754-50.831 6.666-92.305 50.907-92.305 105.108 0 55.984 44.719 105 106 105h75v45c0 8.284 6.716 15 15 15h120c8.284 0 15-6.716 15-15v-45h75c58.06 0 106-47.409 106-105 0-54.196-41.469-98.441-92.306-105.108zm-118.694 240.108h-90v-105c0-8.284-6.716-15-15-15h-.148l60.148-80.866 60.148 80.866h-.148c-8.284 0-15 6.716-15 15zm105-60h-75v-30h15c5.671 0 10.856-3.198 13.403-8.265 2.546-5.067 2.017-11.137-1.367-15.687l-90-121c-2.83-3.805-7.294-6.048-12.036-6.048s-9.206 2.243-12.036 6.048l-90 121c-3.384 4.55-3.914 10.62-1.367 15.687 2.546 5.067 7.732 8.265 13.403 8.265h15v30h-75c-44.326 0-76-35.179-76-75 0-41.196 34.804-76 76-76 8.284 0 15-6.716 15-15 0-24.935 20.607-46 44.97-46 7.508.244 15.896.932 19.539-9.526 10.519-30.19 38.847-50.474 70.491-50.474s59.972 20.284 70.49 50.474c3.588 10.299 12.141 9.792 19.51 9.526 24.393 0 45 21.065 45 46 0 8.284 6.716 15 15 15 41.196 0 76 34.804 76 76 0 41.052-34.474 75-76 75z"/><path d="m196 452h120c8.284 0 15-6.716 15-15s-6.716-15-15-15h-120c-8.284 0-15 6.716-15 15s6.716 15 15 15z"/><path d="m196 512h120c8.284 0 15-6.716 15-15s-6.716-15-15-15h-120c-8.284 0-15 6.716-15 15s6.716 15 15 15z"/></svg>