<svg xmlns="http://www.w3.org/2000/svg" xmlns:xlink="http://www.w3.org/1999/xlink" width="459.387" height="301.779" viewBox="0 0 459.387 301.779"><defs><style>.a{fill:#fff;}.b{fill:#000f3e;font-size:19px;font-family:Gilroy-Bold, Gilroy;font-weight:700;}.c{fill:rgba(255,94,0,0.2);}.d{opacity:0.5;}.e{filter:url(#a);}</style><filter id="a" x="122.387" y="8" width="337" height="271" filterUnits="userSpaceOnUse"><feOffset dy="3" input="SourceAlpha"/><feGaussianBlur stdDeviation="3" result="b"/><feFlood flood-opacity="0.161"/><feComposite operator="in" in2="b"/><feComposite in="SourceGraphic"/></filter></defs><g transform="translate(-1082.307 -1857.11)"><g class="e" transform="matrix(1, 0, 0, 1, 1082.31, 1857.11)"><rect class="a" width="319" height="253" rx="16" transform="translate(131.39 14)"/></g><rect class="a" width="327" height="187" rx="16" transform="translate(1096.693 1857.11)"/><text class="b" transform="translate(1232.693 2084.11)"><tspan x="0" y="0">100 subscriber special</tspan></text><rect class="c" width="327" height="187" rx="16" transform="translate(1096.693 1857.11)"/><g class="d" transform="translate(1082.307 2064.253)"><path d="M10.449,7.9a1.088,1.088,0,0,0-1.644.933V18.983a1.089,1.089,0,0,0,1.644.935l8.506-5.065a1.089,1.089,0,0,0,0-1.868Zm.53,9.167V10.752l5.3,3.164Z" transform="translate(4.429 -0.164)"/><path d="M29.587,3.523a89.982,89.982,0,0,0-23.5,0,6.5,6.5,0,0,0-5.424,5.4,43.462,43.462,0,0,0,0,15.142,6.5,6.5,0,0,0,5.424,5.4,83.034,83.034,0,0,0,11.766.771,82.529,82.529,0,0,0,11.734-.77,6.5,6.5,0,0,0,5.423-5.4,43.479,43.479,0,0,0,0-15.144,6.5,6.5,0,0,0-5.424-5.4ZM32.813,23.7A4.278,4.278,0,0,1,29.26,27.27a87.512,87.512,0,0,1-22.845,0A4.278,4.278,0,0,1,2.862,23.7a40.822,40.822,0,0,1,0-14.4A4.281,4.281,0,0,1,6.417,5.728,80.754,80.754,0,0,1,17.837,4.98a80.767,80.767,0,0,1,11.422.748A4.278,4.278,0,0,1,32.813,9.3,40.83,40.83,0,0,1,32.813,23.7Z" transform="translate(0 -2.753)"/></g><g class="d" transform="translate(1133.578 2077.11)"><path d="M42.2,39.9a12.872,12.872,0,0,1-7.922-2.68,13.132,13.132,0,0,1-1.217-1.062,12.7,12.7,0,0,1-.571-17.5,12.858,12.858,0,0,1,9.71-4.343,13.289,13.289,0,0,1,1.941.143l1,.148V23.46L43.6,22.952a4.4,4.4,0,0,0-4.52,1.089,4.367,4.367,0,0,0,.886,6.827A4.392,4.392,0,0,0,46.61,27.11l.008-9.181V0h8.461l.01,1.158A8.3,8.3,0,0,0,58.4,7.729,8.263,8.263,0,0,0,63.42,9.4c.043,0,.043,0,.433.027l1.087.076v8.339H63.375a16.3,16.3,0,0,1-6.457-1.312,16.818,16.818,0,0,1-1.817-.9l.027,11.52a12.653,12.653,0,0,1-3.792,9.007,12.858,12.858,0,0,1-7.2,3.6A13.207,13.207,0,0,1,42.2,39.9Zm0-23.251a10.549,10.549,0,0,0-7.966,3.562A10.356,10.356,0,0,0,34.7,34.5a10.839,10.839,0,0,0,1,.873,10.554,10.554,0,0,0,6.5,2.2,10.933,10.933,0,0,0,1.6-.118,10.532,10.532,0,0,0,5.9-2.95,10.324,10.324,0,0,0,3.1-7.346l-.037-16.086,1.888,1.457a14.375,14.375,0,0,0,3.186,1.858A13.993,13.993,0,0,0,62.6,15.49V11.714A10.567,10.567,0,0,1,57,9.6a10.642,10.642,0,0,1-4.041-6.424q-.082-.413-.132-.834H48.955V17.93l-.008,9.181a6.736,6.736,0,1,1-6.733-6.72c.195,0,.388.009.581.025V16.67c-.2-.011-.4-.016-.6-.016Z" transform="translate(-29.264)"/></g><g class="d" transform="translate(1155.955 2132.286)"><path d="M26.979,7.822a9.721,9.721,0,0,0-.618-3.227A6.815,6.815,0,0,0,22.468.7,9.746,9.746,0,0,0,19.241.083C17.817.016,17.365,0,13.753,0S9.689.016,8.27.078A9.724,9.724,0,0,0,5.043.7a6.491,6.491,0,0,0-2.36,1.538A6.55,6.55,0,0,0,1.15,4.589,9.747,9.747,0,0,0,.532,7.816C.464,9.24.449,9.692.449,13.3s.016,4.064.078,5.483a9.721,9.721,0,0,0,.619,3.227,6.814,6.814,0,0,0,3.892,3.892,9.747,9.747,0,0,0,3.227.618c1.419.063,1.871.078,5.483.078s4.064-.015,5.483-.078a9.718,9.718,0,0,0,3.227-.618,6.8,6.8,0,0,0,3.893-3.892,9.754,9.754,0,0,0,.618-3.227c.062-1.419.078-1.871.078-5.483s-.005-4.064-.068-5.483Zm-2.4,10.862a7.292,7.292,0,0,1-.457,2.469A4.413,4.413,0,0,1,21.6,23.678a7.318,7.318,0,0,1-2.469.457c-1.4.063-1.824.078-5.374.078s-3.976-.015-5.374-.078a7.288,7.288,0,0,1-2.469-.457,4.094,4.094,0,0,1-1.528-.993A4.136,4.136,0,0,1,3.4,21.157a7.319,7.319,0,0,1-.457-2.469c-.063-1.4-.078-1.824-.078-5.374s.015-3.976.078-5.374A7.288,7.288,0,0,1,3.4,5.473a4.044,4.044,0,0,1,1-1.528,4.13,4.13,0,0,1,1.528-.993A7.323,7.323,0,0,1,8.39,2.495c1.4-.062,1.824-.078,5.374-.078s3.976.016,5.374.078a7.292,7.292,0,0,1,2.469.457,4.091,4.091,0,0,1,1.528.993,4.135,4.135,0,0,1,.993,1.528,7.321,7.321,0,0,1,.457,2.469c.062,1.4.078,1.824.078,5.374s-.016,3.965-.078,5.369Zm0,0" transform="translate(-0.448 0)"/><path d="M131.146,124.5a6.2,6.2,0,1,0,6.2,6.2A6.2,6.2,0,0,0,131.146,124.5Zm0,10.217a4.02,4.02,0,1,1,4.02-4.02A4.02,4.02,0,0,1,131.146,134.717Zm0,0" transform="translate(-117.841 -117.392)"/><path d="M365.955,90.354A1.753,1.753,0,1,1,364.2,88.6,1.753,1.753,0,0,1,365.955,90.354Zm0,0" transform="translate(-343.889 -84.059)"/></g></g></svg>