<svg xmlns="http://www.w3.org/2000/svg" xmlns:xlink="http://www.w3.org/1999/xlink" width="543" height="208" viewBox="0 0 543 208">
  <defs>
    <style>
      .cls-1 {
        fill: rgba(0,144,255,0.2);
      }

      .cls-2 {
        fill: #fff;
      }

      .cls-3 {
        fill: #fbfbfb;
      }

      .cls-4, .cls-5 {
        opacity: 0.1;
      }

      .cls-6 {
        fill: #0090ff;
      }

      .cls-7 {
        fill: #333e48;
      }

      .cls-8 {
        fill: #1e252b;
      }

      .cls-9 {
        filter: url(#Rectangle_37);
      }

      .cls-10 {
        filter: url(#Rectangle_36);
      }
    </style>
    <filter id="Rectangle_36" x="76" y="31" width="467" height="116" filterUnits="userSpaceOnUse">
      <feOffset dy="8" input="SourceAlpha"/>
      <feGaussianBlur stdDeviation="8" result="blur"/>
      <feFlood flood-opacity="0.161"/>
      <feComposite operator="in" in2="blur"/>
      <feComposite in="SourceGraphic"/>
    </filter>
    <filter id="Rectangle_37" x="76" y="99" width="467" height="94" filterUnits="userSpaceOnUse">
      <feOffset dy="8" input="SourceAlpha"/>
      <feGaussianBlur stdDeviation="8" result="blur-2"/>
      <feFlood flood-opacity="0.161"/>
      <feComposite operator="in" in2="blur-2"/>
      <feComposite in="SourceGraphic"/>
    </filter>
  </defs>
  <g id="Group_8" data-name="Group 8" transform="translate(-432 -1929)">
    <rect id="Rectangle_35" data-name="Rectangle 35" class="cls-1" width="262" height="208" rx="16" transform="translate(432 1929)"/>
    <g class="cls-10" transform="matrix(1, 0, 0, 1, 432, 1929)">
      <path id="Rectangle_36-2" data-name="Rectangle 36" class="cls-2" d="M16,0H403a16,16,0,0,1,16,16V68a0,0,0,0,1,0,0H0a0,0,0,0,1,0,0V16A16,16,0,0,1,16,0Z" transform="translate(100 47)"/>
    </g>
    <g class="cls-9" transform="matrix(1, 0, 0, 1, 432, 1929)">
      <path id="Rectangle_37-2" data-name="Rectangle 37" class="cls-3" d="M0,0H419a0,0,0,0,1,0,0V30a16,16,0,0,1-16,16H16A16,16,0,0,1,0,30V0A0,0,0,0,1,0,0Z" transform="translate(100 115)"/>
    </g>
    <path id="image" class="cls-4" d="M17.656,0H2.344A2.346,2.346,0,0,0,0,2.344V17.656A2.346,2.346,0,0,0,2.344,20H17.656A2.346,2.346,0,0,0,20,17.656V2.344A2.346,2.346,0,0,0,17.656,0ZM2.344,1.563H17.656a.782.782,0,0,1,.781.781V13.817l-2.659-2.659a2.346,2.346,0,0,0-3.315,0l-.862.862L9.177,9.6a2.346,2.346,0,0,0-3.315,0l-4.3,4.3V2.344A.782.782,0,0,1,2.344,1.563ZM17.656,18.438H2.344a.782.782,0,0,1-.781-.781V16.1l5.4-5.4a.782.782,0,0,1,1.1,0l3.53,3.53,1.967-1.967a.782.782,0,0,1,1.1,0l3.764,3.764v1.629A.782.782,0,0,1,17.656,18.438Zm-5-10.625a2.344,2.344,0,1,0-2.344-2.344A2.346,2.346,0,0,0,12.656,7.813Zm0-3.125a.781.781,0,1,1-.781.781A.782.782,0,0,1,12.656,4.688Z" transform="translate(620.111 2057)"/>
    <g id="youtube" class="cls-5" transform="translate(670.111 1997.026)">
      <path id="Path_33" data-name="Path 33" d="M202.577,169.556l-5.522-3.451a.69.69,0,0,0-1.056.585v6.9a.69.69,0,0,0,1.056.585l5.522-3.451a.69.69,0,0,0,0-1.171Zm-5.2,2.791v-4.412l3.53,2.206Z" transform="translate(-186.979 -100.168)"/>
      <path id="Path_34" data-name="Path 34" d="M20.11,61H3.451A3.455,3.455,0,0,0,0,64.451V75.5a3.455,3.455,0,0,0,3.451,3.451H20.11A3.455,3.455,0,0,0,23.562,75.5V64.451A3.455,3.455,0,0,0,20.11,61Zm2.071,14.5a2.073,2.073,0,0,1-2.071,2.071H3.451A2.073,2.073,0,0,1,1.381,75.5V64.451a2.073,2.073,0,0,1,2.071-2.071H20.11a2.073,2.073,0,0,1,2.071,2.071Z" transform="translate(0)"/>
    </g>
    <rect id="Rectangle_38" data-name="Rectangle 38" class="cls-6" width="90" height="30" rx="15" transform="translate(837 2052)"/>
    <g id="font" class="cls-5" transform="translate(566 1994.39)">
      <path id="Path_35" data-name="Path 35" class="cls-7" d="M295.6,65.965v-.79h-3.4v.79h1.3V79.255h-1.3v.79h3.4v-.79h-1.3V65.965Z" transform="translate(-271.491)"/>
      <g id="Group_4" data-name="Group 4" transform="translate(0 66.861)">
        <path id="Path_36" data-name="Path 36" class="cls-8" d="M.147,98.927l3.975-8.976a1.551,1.551,0,0,1,1.466-.994h.147a1.529,1.529,0,0,1,1.45.994l3.975,8.976a1.223,1.223,0,0,1,.13.505,1.189,1.189,0,0,1-1.189,1.205,1.277,1.277,0,0,1-1.205-.863l-.766-1.792H3.112l-.8,1.873a1.232,1.232,0,0,1-1.157.782A1.154,1.154,0,0,1,0,99.464,1.33,1.33,0,0,1,.147,98.927ZM7.2,95.766,5.62,92,4.04,95.766Z" transform="translate(0 -88.957)"/>
        <path id="Path_37" data-name="Path 37" class="cls-8" d="M176.011,134.113v-.033c0-1.906,1.45-2.786,3.519-2.786a6.2,6.2,0,0,1,2.134.358v-.147c0-1.026-.635-1.6-1.873-1.6a5.677,5.677,0,0,0-1.71.244,1.048,1.048,0,0,1-.359.065,1.008,1.008,0,0,1-1.026-1.01,1.027,1.027,0,0,1,.668-.961,7.6,7.6,0,0,1,2.786-.456,4.032,4.032,0,0,1,2.949.977,3.806,3.806,0,0,1,.945,2.786v3.975a1.189,1.189,0,0,1-1.206,1.189,1.109,1.109,0,0,1-1.189-1.026v-.016a3.358,3.358,0,0,1-2.639,1.108A2.7,2.7,0,0,1,176.011,134.113Zm5.685-.57v-.44a3.84,3.84,0,0,0-1.58-.326c-1.059,0-1.71.424-1.71,1.205v.033c0,.668.554,1.059,1.352,1.059C180.914,135.074,181.7,134.439,181.7,133.542Z" transform="translate(-163.533 -125.039)"/>
      </g>
    </g>
  </g>
</svg>
